<svg xmlns="http://www.w3.org/2000/svg" version="1.1" xmlns:xlink="http://www.w3.org/1999/xlink" xmlns:svgjs="http://svgjs.com/svgjs" width="3840" height="2160" preserveAspectRatio="none" viewBox="0 0 3840 2160"><g mask="url(&quot;#SvgjsMask1023&quot;)" fill="none"><rect width="3840" height="2160" x="0" y="0" fill="rgba(33, 35, 43, 1)"></rect><path d="M2160 506.77C2135.79 511.3 2122.76 517.4 2122.76 540C2122.76 617.09 2090.93 690.64 2160 706.15C2379.55 755.44 2456.1 733.92 2700 669.6C2771.1 650.85 2790 602.82 2790 540C2790 484.02 2764.58 435.41 2700 432C2449.58 418.79 2424.41 457.3 2160 506.77" stroke="rgba(48, 52, 70, 1)" stroke-width="2"></path><path d="M3942 0C4128.24 214.17 4091.17 272.98 4249.57 540C4280.17 591.58 4312.49 579.62 4320 637.2C4347.7 849.62 4320 858.6 4320 1080C4320 1343.57 4324.23 1344.87 4320 1607.14C4319.88 1614.87 4311.29 1613.66 4311.29 1620C4311.29 1625.96 4319.88 1624.47 4320 1631.74C4324.24 1894.47 4453.52 2029.39 4320 2160C4183.52 2293.52 4050 2160 3780 2160C3510 2160 3510 2160 3240 2160C2970 2160 2970 2160 2700 2160C2430 2160 2430 2160 2160 2160C1890 2160 1890 2160 1620 2160C1458 2160 1441.44 2206.92 1296 2160C1171.44 2119.82 1164.91 1985.81 1080 1985.81C1022.74 1985.81 1088.34 2135.26 1011.65 2160C818.34 2222.36 775.83 2160 540 2160C304.17 2160 292.66 2188.04 68.35 2160C22.66 2154.29 5.77 2138.12 0 2092.5C-28.4 1868.12 0 1856.25 0 1620C0 1350 0 1350 0 1080C0 810 0 810 0 540C0 270 -135 135 0 0C135 -135 270 0 540 0C810 0 810 0 1080 0C1350 0 1350 0 1620 0C1890 0 1890 0 2160 0C2430 0 2430 0 2700 0C2970 0 2970 0 3240 0C3510 0 3510 0 3780 0C3861 0 3893.45 -55.83 3942 0" stroke="rgba(48, 52, 70, 1)" stroke-width="2"></path><path d="M540 753.49C417.8 753.49 370.84 915.93 370.84 1080C370.84 1250.41 416.3 1422.44 540 1422.44C720.26 1422.44 978.75 1248.7 978.75 1080C978.75 914.23 721.75 753.49 540 753.49" stroke="rgba(48, 52, 70, 1)" stroke-width="2"></path><path d="M2700 1507.5C2633.7 1521.53 2610 1570.74 2610 1620C2610 1656.99 2653.45 1652.49 2700 1680C2968.45 1838.69 3033.97 2010.77 3240 1992.41C3370.63 1980.77 3373.33 1791.24 3373.33 1620C3373.33 1538.37 3327.08 1501.22 3240 1486.67C2990.42 1444.97 2948.7 1454.87 2700 1507.5" stroke="rgba(48, 52, 70, 1)" stroke-width="2"></path><path d="M540 437.14C319.18 553.56 143.38 594.36 0 478.29C-126.62 375.79 -126.82 112.33 0 0C143.18 -126.82 270 0 540 0C723.6 0 907.2 -85.55 907.2 0C907.2 133.02 772.78 314.41 540 437.14" stroke="rgba(48, 52, 70, 1)" stroke-width="2"></path><path d="M1130.63 540C1171.62 254.26 1287.18 225.38 1491.43 0C1531.87 -44.62 1555.72 0 1620 0C1890 0 1890 0 2160 0C2422.7 0 2685.41 -69.53 2685.41 0C2685.41 80.01 2408.79 130.18 2160 299.08C2011.09 400.18 1936.78 383.55 1890 540C1820.03 774.01 1861.8 821.26 1926.49 1080C1996.8 1361.26 2043.24 1350 2160 1620C2160 1620 2160 1620 2160 1620C2430 1800 2430.91 1798.66 2700 1980C2831.56 2068.66 2961.29 2110.64 2961.29 2160C2961.29 2200.64 2830.65 2160 2700 2160C2430 2160 2430 2160 2160 2160C1946.25 2160 1902.48 2230.82 1732.5 2160C1632.48 2118.32 1706.25 2022.46 1620 1935C1440 1752.46 1268.78 1827.43 1200 1620C1127.03 1399.93 1353.52 1345.02 1336.5 1080C1318.84 805.02 1094.15 794.26 1130.63 540" stroke="rgba(48, 52, 70, 1)" stroke-width="2"></path><path d="M3165 540C3147.92 261.97 2689.37 154.29 2710.8 0C2726.87 -115.71 2975.4 0 3240 0C3443.54 0 3470.49 -55.4 3647.08 0C3740.49 29.3 3715.22 83.43 3780 169.41C3918.64 353.43 3917.82 354.07 4053.91 540C4187.82 722.96 4223.66 711.7 4320 907.2C4356.71 981.7 4320 993.6 4320 1080C4320 1182.86 4358.22 1194.58 4320 1285.71C4244.99 1464.58 4093.55 1455.28 4093.55 1620C4093.55 1775.04 4250.01 1758.32 4320 1925.22C4363.24 2028.32 4401.82 2124.43 4320 2160C4131.82 2241.82 4050 2160 3780 2160C3603.91 2160 3474.59 2265.22 3427.83 2160C3354.59 1995.22 3593.08 1857.39 3540 1620C3499.17 1437.39 3411.13 1441.14 3240 1320C3029.7 1171.14 2793.62 1251.41 2777.14 1080C2756.12 861.41 3181.09 801.97 3165 540" stroke="rgba(48, 52, 70, 1)" stroke-width="2"></path><path d="M0 600C54.29 600 104.21 839.95 208.19 1080C325.12 1349.95 307.83 1361.56 441.82 1620C473.73 1681.56 498.47 1663.79 540 1720C697.94 1933.79 840.76 2019.36 840.76 2160C840.76 2239.36 690.38 2160 540 2160C389.62 2160 366.72 2215.77 239.24 2160C96.72 2097.65 62.85 2065.6 0 1923.75C-56.77 1795.6 0 1771.88 0 1620C0 1350 0 1350 0 1080C0 840 -49.81 600 0 600" stroke="rgba(48, 52, 70, 1)" stroke-width="2"></path><path d="M540 115.71C291.01 151.88 230.52 141.97 0 92.57C-39.48 84.11 -39.51 6.77 0 0C230.49 -39.51 270 0 540 0C588.6 0 637.2 -22.65 637.2 0C637.2 35.21 609.61 105.6 540 115.71" stroke="rgba(48, 52, 70, 1)" stroke-width="2"></path><path d="M1552.5 540C1552.5 488.18 1591.93 450 1620 450C1644.3 450 1657.24 492.61 1657.24 540C1657.24 672.61 1645.91 810 1620 810C1593.54 810 1552.5 668.18 1552.5 540" stroke="rgba(48, 52, 70, 1)" stroke-width="2"></path><path d="M2160 91.38C2065.85 91.38 1968.39 24.01 1968.39 0C1968.39 -21.68 2064.19 0 2160 0C2240.27 0 2320.54 -21.24 2320.54 0C2320.54 24.45 2241.93 91.38 2160 91.38" stroke="rgba(48, 52, 70, 1)" stroke-width="2"></path><path d="M3240 294.55C3119.73 294.55 2980.8 88.69 2980.8 0C2980.8 -58.59 3110.4 0 3240 0C3339.69 0 3439.38 -52.9 3439.38 0C3439.38 94.37 3349.02 294.55 3240 294.55" stroke="rgba(48, 52, 70, 1)" stroke-width="2"></path><path d="M3600 540C3679.44 473.17 3700.8 434.12 3780 434.12C3829.93 434.12 3827.27 482.09 3858.26 540C4000.07 805.03 4121.18 808.29 4125.6 1080C4129.96 1348.29 3895.16 1343.59 3875.81 1620C3857.36 1883.59 4082.46 1977.06 4050 2160C4034.55 2247.06 3915 2160 3780 2160C3750.65 2160 3724.89 2186.46 3721.3 2160C3688.23 1916.46 3814.99 1846.55 3706.67 1620C3574.34 1343.22 3484.93 1370.83 3240 1153.33C3180.88 1100.83 3098.57 1133.1 3098.57 1080C3098.57 1000.63 3159.22 975.39 3240 888.39C3409.93 705.39 3409.44 700.31 3600 540" stroke="rgba(48, 52, 70, 1)" stroke-width="2"></path><path d="M0 975C11.88 975 28.9 1025.33 45.54 1080C127.08 1347.83 212.34 1383.16 196.36 1620C189.57 1720.66 62.67 1755 0 1755C-35.51 1755 0 1687.5 0 1620C0 1350 0 1350 0 1080C0 1027.5 -10.89 975 0 975" stroke="rgba(48, 52, 70, 1)" stroke-width="2"></path><path d="M410.13 2160C410.13 2099.27 475.07 1970 540 1970C604.93 1970 669.87 2099.27 669.87 2160C669.87 2194.27 604.93 2160 540 2160C475.07 2160 410.13 2194.27 410.13 2160" stroke="rgba(48, 52, 70, 1)" stroke-width="2"></path><path d="M2013.75 2160C2013.75 2103.01 2070.22 1975.26 2160 1975.26C2295.95 1975.26 2465.22 2110.22 2465.22 2160C2465.22 2202.59 2312.61 2160 2160 2160C2086.88 2160 2013.75 2195.38 2013.75 2160" stroke="rgba(48, 52, 70, 1)" stroke-width="2"></path></g><defs><mask id="SvgjsMask1023"><rect width="3840" height="2160" fill="#ffffff"></rect></mask></defs></svg>